<svg xmlns="http://www.w3.org/2000/svg" viewBox="0 0 1280 880" width="1280" height="880" fill="none" font-family="Inter, system-ui, sans-serif">
  <defs>
    <style>
      .kc-p { animation: kcPulse 8.4s ease-in-out infinite; }
      @keyframes kcPulse {
        0%, 7%, 100% { fill-opacity: 0; stroke-opacity: 0; }
        11% { fill-opacity: 0.1; stroke-opacity: 0.7; }
        16% { fill-opacity: 0; stroke-opacity: 0; }
      }
    </style>
    <linearGradient id="kc-bg" x1="0" y1="0" x2="0" y2="1">
      <stop offset="0%" stop-color="#0A0E1A"></stop>
      <stop offset="100%" stop-color="#0F1320"></stop>
    </linearGradient>
    <pattern id="kc-grid" width="32" height="32" patternUnits="userSpaceOnUse">
      <circle cx="1" cy="1" r="1" fill="#1F2937"></circle>
    </pattern>
    <filter id="kc-glow" x="-30%" y="-30%" width="160%" height="160%">
      <feGaussianBlur stdDeviation="3"></feGaussianBlur>
      <feMerge><feMergeNode></feMergeNode><feMergeNode in="SourceGraphic"></feMergeNode></feMerge>
    </filter>
  </defs>

  <rect width="1280" height="880" fill="url(#kc-bg)"></rect>
  <rect width="1280" height="880" fill="url(#kc-grid)"></rect>

  
  <g transform="translate(40, 40)">
    <text font-size="11" font-family="&#39;JetBrains Mono&#39;, monospace" fill="#6B7280" letter-spacing="2">KEY CAPABILITIES</text>
    <text y="32" font-size="28" font-weight="700" fill="#F3F4F6" letter-spacing="-0.5">Twenty primitives. One canvas.</text>
    <text y="58" font-size="14" fill="#9CA3AF">Each capability lights up as the runtime composes them into a single workflow.</text>
  </g>

  
  
  

  <g transform="translate(40, 128)">
    
    <g transform="translate(0, 0)">
      <rect width="224" height="132" rx="14" fill="#0F1320" stroke="#1F2937"></rect>
      <rect width="224" height="4" rx="2" fill="#7C3AED" opacity="0.6"></rect>
      <g transform="translate(18, 22)">
        <rect width="36" height="36" rx="9" fill="#7C3AED" fill-opacity="0.15"></rect>
        <rect x="9" y="9" width="6" height="6" rx="1.5" fill="#A78BFA"></rect>
        <rect x="21" y="9" width="6" height="6" rx="1.5" fill="#A78BFA"></rect>
        <rect x="9" y="21" width="6" height="6" rx="1.5" fill="#A78BFA"></rect>
        <rect x="21" y="21" width="6" height="6" rx="1.5" fill="#A78BFA"></rect>
        <line x1="15" y1="12" x2="21" y2="12" stroke="#A78BFA" stroke-width="1.2"></line>
        <line x1="12" y1="15" x2="12" y2="21" stroke="#A78BFA" stroke-width="1.2"></line>
      </g>
      <text x="68" y="42" font-size="13" font-weight="600" fill="#F3F4F6">Visual Editor</text>
      <text x="18" y="84" font-size="11" fill="#9CA3AF">Drag-and-drop canvas</text>
      <text x="18" y="100" font-size="11" fill="#9CA3AF">powered by Vue Flow.</text>
      <text x="18" y="120" font-size="10.5" font-family="&#39;JetBrains Mono&#39;, monospace" fill="#A78BFA">30+ node types</text>
      <rect x="0" y="0" width="224" height="132" rx="14" fill="#7C3AED" fill-opacity="0" pointer-events="none" class="kc-p" style="animation-delay: 0.00s"></rect>
    </g>

    <g transform="translate(240, 0)">
      <rect width="224" height="132" rx="14" fill="#0F1320" stroke="#1F2937"></rect>
      <rect width="224" height="4" rx="2" fill="#22D3EE" opacity="0.6"></rect>
      <g transform="translate(18, 22)">
        <rect width="36" height="36" rx="9" fill="#22D3EE" fill-opacity="0.15"></rect>
        <path d="M 12 14 L 18 20 L 12 26" stroke="#22D3EE" stroke-width="1.6" fill="none" stroke-linecap="round"></path>
        <line x1="20" y1="26" x2="26" y2="26" stroke="#22D3EE" stroke-width="1.6" stroke-linecap="round"></line>
      </g>
      <text x="68" y="42" font-size="13" font-weight="600" fill="#F3F4F6">AI Assistant</text>
      <text x="18" y="84" font-size="11" fill="#9CA3AF">Describe in natural language</text>
      <text x="18" y="100" font-size="11" fill="#9CA3AF">or voice — auto-wires nodes.</text>
      <text x="18" y="120" font-size="10.5" font-family="&#39;JetBrains Mono&#39;, monospace" fill="#22D3EE">text · voice</text>
      <rect x="0" y="0" width="224" height="132" rx="14" fill="#22D3EE" fill-opacity="0" pointer-events="none" class="kc-p" style="animation-delay: 0.40s"></rect>
    </g>

    <g transform="translate(480, 0)">
      <rect width="224" height="132" rx="14" fill="#0F1320" stroke="#1F2937"></rect>
      <rect width="224" height="4" rx="2" fill="#10D9A0" opacity="0.6"></rect>
      <g transform="translate(18, 22)">
        <rect width="36" height="36" rx="9" fill="#10D9A0" fill-opacity="0.15"></rect>
        <rect x="10" y="11" width="16" height="14" rx="2" fill="none" stroke="#10D9A0" stroke-width="1.4"></rect>
        <line x1="13" y1="15" x2="23" y2="15" stroke="#10D9A0" stroke-width="1.2"></line>
        <line x1="13" y1="19" x2="20" y2="19" stroke="#10D9A0" stroke-width="1.2"></line>
      </g>
      <text x="68" y="42" font-size="13" font-weight="600" fill="#F3F4F6">Chat with Docs</text>
      <text x="18" y="84" font-size="11" fill="#9CA3AF">Context-aware Q&amp;A from</text>
      <text x="18" y="100" font-size="11" fill="#9CA3AF">the docs header. Live.</text>
      <text x="18" y="120" font-size="10.5" font-family="&#39;JetBrains Mono&#39;, monospace" fill="#10D9A0">page-aware</text>
      <rect x="0" y="0" width="224" height="132" rx="14" fill="#10D9A0" fill-opacity="0" pointer-events="none" class="kc-p" style="animation-delay: 0.80s"></rect>
    </g>

    <g transform="translate(720, 0)">
      <rect width="224" height="132" rx="14" fill="#0F1320" stroke="#1F2937"></rect>
      <rect width="224" height="4" rx="2" fill="#F59E0B" opacity="0.6"></rect>
      <g transform="translate(18, 22)">
        <rect width="36" height="36" rx="9" fill="#F59E0B" fill-opacity="0.15"></rect>
        <path d="M 18 10 L 22 16 L 28 17 L 23 21 L 24 27 L 18 24 L 12 27 L 13 21 L 8 17 L 14 16 Z" fill="#F59E0B" fill-opacity="0.7"></path>
      </g>
      <text x="68" y="42" font-size="13" font-weight="600" fill="#F3F4F6">Skill Builder</text>
      <text x="18" y="84" font-size="11" fill="#9CA3AF">Modal chat creates &amp; revises</text>
      <text x="18" y="100" font-size="11" fill="#9CA3AF">skills with live previews.</text>
      <text x="18" y="120" font-size="10.5" font-family="&#39;JetBrains Mono&#39;, monospace" fill="#F59E0B">SKILL.md · py</text>
      <rect x="0" y="0" width="224" height="132" rx="14" fill="#F59E0B" fill-opacity="0" pointer-events="none" class="kc-p" style="animation-delay: 1.20s"></rect>
    </g>

    <g transform="translate(960, 0)">
      <rect width="224" height="132" rx="14" fill="#0F1320" stroke="#1F2937"></rect>
      <rect width="224" height="4" rx="2" fill="#A78BFA" opacity="0.6"></rect>
      <g transform="translate(18, 22)">
        <rect width="36" height="36" rx="9" fill="#A78BFA" fill-opacity="0.15"></rect>
        <circle cx="18" cy="18" r="9" fill="none" stroke="#A78BFA" stroke-width="1.4"></circle>
        <circle cx="18" cy="18" r="3" fill="#A78BFA"></circle>
        <circle cx="18" cy="18" r="11" fill="none" stroke="#A78BFA" stroke-width="1" stroke-dasharray="2 2">
          
        </circle>
      </g>
      <text x="68" y="42" font-size="13" font-weight="600" fill="#F3F4F6">Agent + LLM Nodes</text>
      <text x="18" y="84" font-size="11" fill="#9CA3AF">Tools · Python · MCP · skills</text>
      <text x="18" y="100" font-size="11" fill="#9CA3AF">memory · batch · fallback.</text>
      <text x="18" y="120" font-size="10.5" font-family="&#39;JetBrains Mono&#39;, monospace" fill="#A78BFA">first-class</text>
      <rect x="0" y="0" width="224" height="132" rx="14" fill="#A78BFA" fill-opacity="0" pointer-events="none" class="kc-p" style="animation-delay: 1.60s"></rect>
    </g>

    
    <g transform="translate(0, 148)">
      <rect width="224" height="132" rx="14" fill="#0F1320" stroke="#1F2937"></rect>
      <rect width="224" height="4" rx="2" fill="#7C3AED" opacity="0.6"></rect>
      <g transform="translate(18, 22)">
        <rect width="36" height="36" rx="9" fill="#7C3AED" fill-opacity="0.15"></rect>
        <circle cx="11" cy="13" r="3" fill="#A78BFA"></circle>
        <circle cx="25" cy="13" r="3" fill="#A78BFA"></circle>
        <circle cx="18" cy="25" r="3" fill="#A78BFA"></circle>
        <line x1="11" y1="13" x2="18" y2="25" stroke="#A78BFA" stroke-width="1.2"></line>
        <line x1="25" y1="13" x2="18" y2="25" stroke="#A78BFA" stroke-width="1.2"></line>
        <line x1="11" y1="13" x2="25" y2="13" stroke="#A78BFA" stroke-width="1.2" stroke-opacity="0.4"></line>
      </g>
      <text x="68" y="42" font-size="13" font-weight="600" fill="#F3F4F6">Multi-Agent</text>
      <text x="18" y="84" font-size="11" fill="#9CA3AF">Orchestrator runs named</text>
      <text x="18" y="100" font-size="11" fill="#9CA3AF">sub-agents, all visual.</text>
      <text x="18" y="120" font-size="10.5" font-family="&#39;JetBrains Mono&#39;, monospace" fill="#A78BFA">orchestrate</text>
      <rect x="0" y="0" width="224" height="132" rx="14" fill="#7C3AED" fill-opacity="0" pointer-events="none" class="kc-p" style="animation-delay: 2.00s"></rect>
    </g>

    <g transform="translate(240, 148)">
      <rect width="224" height="132" rx="14" fill="#0F1320" stroke="#1F2937"></rect>
      <rect width="224" height="4" rx="2" fill="#F59E0B" opacity="0.6"></rect>
      <g transform="translate(18, 22)">
        <rect width="36" height="36" rx="9" fill="#F59E0B" fill-opacity="0.15"></rect>
        <circle cx="18" cy="14" r="4" fill="none" stroke="#F59E0B" stroke-width="1.4"></circle>
        <path d="M 10 28 C 10 22, 14 19, 18 19 C 22 19, 26 22, 26 28" stroke="#F59E0B" stroke-width="1.4" fill="none"></path>
      </g>
      <text x="68" y="42" font-size="13" font-weight="600" fill="#F3F4F6">HITL</text>
      <text x="18" y="84" font-size="11" fill="#9CA3AF">Pause for approval or input</text>
      <text x="18" y="100" font-size="11" fill="#9CA3AF">before the agent proceeds.</text>
      <text x="18" y="120" font-size="10.5" font-family="&#39;JetBrains Mono&#39;, monospace" fill="#F59E0B">human-in-loop</text>
      <rect x="0" y="0" width="224" height="132" rx="14" fill="#F59E0B" fill-opacity="0" pointer-events="none" class="kc-p" style="animation-delay: 2.40s"></rect>
    </g>

    <g transform="translate(480, 148)">
      <rect width="224" height="132" rx="14" fill="#0F1320" stroke="#1F2937"></rect>
      <rect width="224" height="4" rx="2" fill="#10D9A0" opacity="0.6"></rect>
      <g transform="translate(18, 22)">
        <rect width="36" height="36" rx="9" fill="#10D9A0" fill-opacity="0.15"></rect>
        <path d="M 18 8 L 26 12 L 26 20 C 26 25, 22 28, 18 29 C 14 28, 10 25, 10 20 L 10 12 Z" fill="none" stroke="#10D9A0" stroke-width="1.4"></path>
        <path d="M 14 18 L 17 21 L 22 16" stroke="#10D9A0" stroke-width="1.6" fill="none" stroke-linecap="round"></path>
      </g>
      <text x="68" y="42" font-size="13" font-weight="600" fill="#F3F4F6">Guardrails</text>
      <text x="18" y="84" font-size="11" fill="#9CA3AF">Content filtering, NSFW &amp;</text>
      <text x="18" y="100" font-size="11" fill="#9CA3AF">multilingual safety checks.</text>
      <text x="18" y="120" font-size="10.5" font-family="&#39;JetBrains Mono&#39;, monospace" fill="#10D9A0">on every llm/agent</text>
      <rect x="0" y="0" width="224" height="132" rx="14" fill="#10D9A0" fill-opacity="0" pointer-events="none" class="kc-p" style="animation-delay: 2.80s"></rect>
    </g>

    <g transform="translate(720, 148)">
      <rect width="224" height="132" rx="14" fill="#0F1320" stroke="#1F2937"></rect>
      <rect width="224" height="4" rx="2" fill="#22D3EE" opacity="0.6"></rect>
      <g transform="translate(18, 22)">
        <rect width="36" height="36" rx="9" fill="#22D3EE" fill-opacity="0.15"></rect>
        <ellipse cx="18" cy="13" rx="9" ry="3" fill="none" stroke="#22D3EE" stroke-width="1.4"></ellipse>
        <path d="M 9 13 L 9 23 C 9 25, 13 26, 18 26 C 23 26, 27 25, 27 23 L 27 13" fill="none" stroke="#22D3EE" stroke-width="1.4"></path>
        <ellipse cx="18" cy="19" rx="9" ry="3" fill="none" stroke="#22D3EE" stroke-width="1.4" stroke-opacity="0.6"></ellipse>
      </g>
      <text x="68" y="42" font-size="13" font-weight="600" fill="#F3F4F6">Built-in RAG</text>
      <text x="18" y="84" font-size="11" fill="#9CA3AF">Insert + semantic search</text>
      <text x="18" y="100" font-size="11" fill="#9CA3AF">on managed QDrant stores.</text>
      <text x="18" y="120" font-size="10.5" font-family="&#39;JetBrains Mono&#39;, monospace" fill="#22D3EE">two nodes</text>
      <rect x="0" y="0" width="224" height="132" rx="14" fill="#22D3EE" fill-opacity="0" pointer-events="none" class="kc-p" style="animation-delay: 3.20s"></rect>
    </g>

    <g transform="translate(960, 148)">
      <rect width="224" height="132" rx="14" fill="#0F1320" stroke="#1F2937"></rect>
      <rect width="224" height="4" rx="2" fill="#A78BFA" opacity="0.6"></rect>
      <g transform="translate(18, 22)">
        <rect width="36" height="36" rx="9" fill="#A78BFA" fill-opacity="0.15"></rect>
        <rect x="8" y="14" width="20" height="14" rx="2" fill="none" stroke="#A78BFA" stroke-width="1.4"></rect>
        <path d="M 12 14 L 12 10 C 12 8, 14 7, 16 7 L 20 7 C 22 7, 24 8, 24 10 L 24 14" fill="none" stroke="#A78BFA" stroke-width="1.4"></path>
        <line x1="14" y1="20" x2="22" y2="20" stroke="#A78BFA" stroke-width="1.2"></line>
        <line x1="14" y1="24" x2="20" y2="24" stroke="#A78BFA" stroke-width="1.2"></line>
      </g>
      <text x="68" y="42" font-size="13" font-weight="600" fill="#F3F4F6">MCP Support</text>
      <text x="18" y="84" font-size="11" fill="#9CA3AF">Connect to any MCP server</text>
      <text x="18" y="100" font-size="11" fill="#9CA3AF">or expose your workflow.</text>
      <text x="18" y="120" font-size="10.5" font-family="&#39;JetBrains Mono&#39;, monospace" fill="#A78BFA">client + server</text>
      <rect x="0" y="0" width="224" height="132" rx="14" fill="#A78BFA" fill-opacity="0" pointer-events="none" class="kc-p" style="animation-delay: 3.60s"></rect>
    </g>

    
    <g transform="translate(0, 296)">
      <rect width="224" height="132" rx="14" fill="#0F1320" stroke="#1F2937"></rect>
      <rect width="224" height="4" rx="2" fill="#22D3EE" opacity="0.6"></rect>
      <g transform="translate(18, 22)">
        <rect width="36" height="36" rx="9" fill="#22D3EE" fill-opacity="0.15"></rect>
        <rect x="8" y="11" width="20" height="14" rx="2" fill="none" stroke="#22D3EE" stroke-width="1.4"></rect>
        <circle cx="13" cy="18" r="1.6" fill="#22D3EE"></circle>
        <line x1="17" y1="18" x2="24" y2="18" stroke="#22D3EE" stroke-width="1.2"></line>
      </g>
      <text x="68" y="42" font-size="13" font-weight="600" fill="#F3F4F6">Portal</text>
      <text x="18" y="84" font-size="11" fill="#9CA3AF">Public chat at /chat/{slug}</text>
      <text x="18" y="100" font-size="11" fill="#9CA3AF">streaming + file uploads.</text>
      <text x="18" y="120" font-size="10.5" font-family="&#39;JetBrains Mono&#39;, monospace" fill="#22D3EE">share workflow</text>
      <rect x="0" y="0" width="224" height="132" rx="14" fill="#22D3EE" fill-opacity="0" pointer-events="none" class="kc-p" style="animation-delay: 4.00s"></rect>
    </g>

    <g transform="translate(240, 296)">
      <rect width="224" height="132" rx="14" fill="#0F1320" stroke="#1F2937"></rect>
      <rect width="224" height="4" rx="2" fill="#10D9A0" opacity="0.6"></rect>
      <g transform="translate(18, 22)">
        <rect width="36" height="36" rx="9" fill="#10D9A0" fill-opacity="0.15"></rect>
        <path d="M 8 18 L 12 14 L 16 18 L 20 12 L 24 16 L 28 14" stroke="#10D9A0" stroke-width="1.6" fill="none" stroke-linecap="round" stroke-linejoin="round"></path>
        <path d="M 8 24 L 12 20 L 16 24 L 20 18 L 24 22 L 28 20" stroke="#10D9A0" stroke-width="1.2" fill="none" stroke-opacity="0.4"></path>
      </g>
      <text x="68" y="42" font-size="13" font-weight="600" fill="#F3F4F6">SSE Streaming</text>
      <text x="18" y="84" font-size="11" fill="#9CA3AF">/execute/stream cURL with</text>
      <text x="18" y="100" font-size="11" fill="#9CA3AF">live per-node events.</text>
      <text x="18" y="120" font-size="10.5" font-family="&#39;JetBrains Mono&#39;, monospace" fill="#10D9A0">webhook · sse</text>
      <rect x="0" y="0" width="224" height="132" rx="14" fill="#10D9A0" fill-opacity="0" pointer-events="none" class="kc-p" style="animation-delay: 4.40s"></rect>
    </g>

    <g transform="translate(480, 296)">
      <rect width="224" height="132" rx="14" fill="#0F1320" stroke="#1F2937"></rect>
      <rect width="224" height="4" rx="2" fill="#7C3AED" opacity="0.6"></rect>
      <g transform="translate(18, 22)">
        <rect width="36" height="36" rx="9" fill="#7C3AED" fill-opacity="0.15"></rect>
        <rect x="8" y="11" width="6" height="14" rx="1.5" fill="#A78BFA" fill-opacity="0.6"></rect>
        <rect x="15" y="11" width="6" height="14" rx="1.5" fill="#A78BFA" fill-opacity="0.6"></rect>
        <rect x="22" y="11" width="6" height="14" rx="1.5" fill="#A78BFA" fill-opacity="0.6"></rect>
      </g>
      <text x="68" y="42" font-size="13" font-weight="600" fill="#F3F4F6">Data Tables</text>
      <text x="18" y="84" font-size="11" fill="#9CA3AF">Structured data in the</text>
      <text x="18" y="100" font-size="11" fill="#9CA3AF">dashboard, called from flows.</text>
      <text x="18" y="120" font-size="10.5" font-family="&#39;JetBrains Mono&#39;, monospace" fill="#A78BFA">db-as-a-node</text>
      <rect x="0" y="0" width="224" height="132" rx="14" fill="#7C3AED" fill-opacity="0" pointer-events="none" class="kc-p" style="animation-delay: 4.80s"></rect>
    </g>

    <g transform="translate(720, 296)">
      <rect width="224" height="132" rx="14" fill="#0F1320" stroke="#1F2937"></rect>
      <rect width="224" height="4" rx="2" fill="#F59E0B" opacity="0.6"></rect>
      <g transform="translate(18, 22)">
        <rect width="36" height="36" rx="9" fill="#F59E0B" fill-opacity="0.15"></rect>
        <rect x="9" y="9" width="8" height="8" rx="2" fill="#F59E0B" fill-opacity="0.5"></rect>
        <rect x="19" y="9" width="8" height="8" rx="2" fill="#F59E0B" fill-opacity="0.5"></rect>
        <rect x="9" y="19" width="18" height="8" rx="2" fill="#F59E0B" fill-opacity="0.8"></rect>
      </g>
      <text x="68" y="42" font-size="13" font-weight="600" fill="#F3F4F6">Templates</text>
      <text x="18" y="84" font-size="11" fill="#9CA3AF">Pre-built workflows so you</text>
      <text x="18" y="100" font-size="11" fill="#9CA3AF">start running, not staring.</text>
      <text x="18" y="120" font-size="10.5" font-family="&#39;JetBrains Mono&#39;, monospace" fill="#F59E0B">jumpstart</text>
      <rect x="0" y="0" width="224" height="132" rx="14" fill="#F59E0B" fill-opacity="0" pointer-events="none" class="kc-p" style="animation-delay: 5.20s"></rect>
    </g>

    <g transform="translate(960, 296)">
      <rect width="224" height="132" rx="14" fill="#0F1320" stroke="#1F2937"></rect>
      <rect width="224" height="4" rx="2" fill="#22D3EE" opacity="0.6"></rect>
      <g transform="translate(18, 22)">
        <rect width="36" height="36" rx="9" fill="#22D3EE" fill-opacity="0.15"></rect>
        <line x1="10" y1="14" x2="26" y2="14" stroke="#22D3EE" stroke-width="1.6">
          
        </line>
        <line x1="10" y1="22" x2="26" y2="22" stroke="#22D3EE" stroke-width="1.6">
          
        </line>
      </g>
      <text x="68" y="42" font-size="13" font-weight="600" fill="#F3F4F6">Parallel Execution</text>
      <text x="18" y="84" font-size="11" fill="#9CA3AF">Independent nodes run</text>
      <text x="18" y="100" font-size="11" fill="#9CA3AF">concurrently — no config.</text>
      <text x="18" y="120" font-size="10.5" font-family="&#39;JetBrains Mono&#39;, monospace" fill="#22D3EE">graph-aware</text>
      <rect x="0" y="0" width="224" height="132" rx="14" fill="#22D3EE" fill-opacity="0" pointer-events="none" class="kc-p" style="animation-delay: 5.60s"></rect>
    </g>

    
    <g transform="translate(0, 444)">
      <rect width="224" height="132" rx="14" fill="#0F1320" stroke="#1F2937"></rect>
      <rect width="224" height="4" rx="2" fill="#10D9A0" opacity="0.6"></rect>
      <g transform="translate(18, 22)">
        <rect width="36" height="36" rx="9" fill="#10D9A0" fill-opacity="0.15"></rect>
        <path d="M 18 9 L 18 14 M 18 22 L 18 27 M 9 18 L 14 18 M 22 18 L 27 18" stroke="#10D9A0" stroke-width="1.4" stroke-linecap="round"></path>
        <circle cx="18" cy="18" r="4" fill="#10D9A0" fill-opacity="0.6"></circle>
      </g>
      <text x="68" y="42" font-size="13" font-weight="600" fill="#F3F4F6">Auto Heal</text>
      <text x="18" y="84" font-size="11" fill="#9CA3AF">Playwright selectors break?</text>
      <text x="18" y="100" font-size="11" fill="#9CA3AF">AI fixes them at runtime.</text>
      <text x="18" y="120" font-size="10.5" font-family="&#39;JetBrains Mono&#39;, monospace" fill="#10D9A0">resilient</text>
      <rect x="0" y="0" width="224" height="132" rx="14" fill="#10D9A0" fill-opacity="0" pointer-events="none" class="kc-p" style="animation-delay: 6.00s"></rect>
    </g>

    <g transform="translate(240, 444)">
      <rect width="224" height="132" rx="14" fill="#0F1320" stroke="#1F2937"></rect>
      <rect width="224" height="4" rx="2" fill="#A78BFA" opacity="0.6"></rect>
      <g transform="translate(18, 22)">
        <rect width="36" height="36" rx="9" fill="#A78BFA" fill-opacity="0.15"></rect>
        <circle cx="13" cy="18" r="3" fill="#A78BFA"></circle>
        <circle cx="23" cy="18" r="3" fill="none" stroke="#A78BFA" stroke-width="1.4"></circle>
        <path d="M 16 18 L 20 18" stroke="#A78BFA" stroke-width="1.6" stroke-dasharray="2 2"></path>
      </g>
      <text x="68" y="42" font-size="13" font-weight="600" fill="#F3F4F6">LLM Fallback</text>
      <text x="18" y="84" font-size="11" fill="#9CA3AF">Auto-switch when primary</text>
      <text x="18" y="100" font-size="11" fill="#9CA3AF">model fails or rate-limits.</text>
      <text x="18" y="120" font-size="10.5" font-family="&#39;JetBrains Mono&#39;, monospace" fill="#A78BFA">never down</text>
      <rect x="0" y="0" width="224" height="132" rx="14" fill="#A78BFA" fill-opacity="0" pointer-events="none" class="kc-p" style="animation-delay: 6.40s"></rect>
    </g>

    <g transform="translate(480, 444)">
      <rect width="224" height="132" rx="14" fill="#0F1320" stroke="#1F2937"></rect>
      <rect width="224" height="4" rx="2" fill="#F59E0B" opacity="0.6"></rect>
      <g transform="translate(18, 22)">
        <rect width="36" height="36" rx="9" fill="#F59E0B" fill-opacity="0.15"></rect>
        <path d="M 18 8 C 14 8, 11 11, 11 15 C 11 21, 18 22, 18 28 C 18 22, 25 21, 25 15 C 25 11, 22 8, 18 8 Z" fill="none" stroke="#F59E0B" stroke-width="1.4"></path>
        <circle cx="18" cy="15" r="2" fill="#F59E0B"></circle>
      </g>
      <text x="68" y="42" font-size="13" font-weight="600" fill="#F3F4F6">Reasoning</text>
      <text x="18" y="84" font-size="11" fill="#9CA3AF">Effort + temperature per</text>
      <text x="18" y="100" font-size="11" fill="#9CA3AF">agent — fine-grain control.</text>
      <text x="18" y="120" font-size="10.5" font-family="&#39;JetBrains Mono&#39;, monospace" fill="#F59E0B">low · med · high</text>
      <rect x="0" y="0" width="224" height="132" rx="14" fill="#F59E0B" fill-opacity="0" pointer-events="none" class="kc-p" style="animation-delay: 6.80s"></rect>
    </g>

    <g transform="translate(720, 444)">
      <rect width="224" height="132" rx="14" fill="#0F1320" stroke="#1F2937"></rect>
      <rect width="224" height="4" rx="2" fill="#7C3AED" opacity="0.6"></rect>
      <g transform="translate(18, 22)">
        <rect width="36" height="36" rx="9" fill="#7C3AED" fill-opacity="0.15"></rect>
        <rect x="8" y="11" width="20" height="14" rx="3" fill="none" stroke="#A78BFA" stroke-width="1.4"></rect>
        <text x="18" y="22" text-anchor="middle" font-family="&#39;JetBrains Mono&#39;, monospace" font-size="9" fill="#A78BFA" font-weight="700">⌘K</text>
      </g>
      <text x="68" y="42" font-size="13" font-weight="600" fill="#F3F4F6">Command Palette</text>
      <text x="18" y="84" font-size="11" fill="#9CA3AF">Ctrl+K instant search,</text>
      <text x="18" y="100" font-size="11" fill="#9CA3AF">navigation, actions.</text>
      <text x="18" y="120" font-size="10.5" font-family="&#39;JetBrains Mono&#39;, monospace" fill="#A78BFA">⌘K everywhere</text>
      <rect x="0" y="0" width="224" height="132" rx="14" fill="#7C3AED" fill-opacity="0" pointer-events="none" class="kc-p" style="animation-delay: 7.20s"></rect>
    </g>

    <g transform="translate(960, 444)">
      <rect width="224" height="132" rx="14" fill="#0F1320" stroke="#1F2937"></rect>
      <rect width="224" height="4" rx="2" fill="#22D3EE" opacity="0.6"></rect>
      <g transform="translate(18, 22)">
        <rect width="36" height="36" rx="9" fill="#22D3EE" fill-opacity="0.15"></rect>
        <line x1="9" y1="27" x2="27" y2="27" stroke="#22D3EE" stroke-width="1.4"></line>
        <rect x="10" y="20" width="3" height="7" fill="#22D3EE" fill-opacity="0.5"></rect>
        <rect x="14" y="16" width="3" height="11" fill="#22D3EE" fill-opacity="0.7"></rect>
        <rect x="18" y="11" width="3" height="16" fill="#22D3EE"></rect>
        <rect x="22" y="14" width="3" height="13" fill="#22D3EE" fill-opacity="0.8"></rect>
      </g>
      <text x="68" y="42" font-size="13" font-weight="600" fill="#F3F4F6">Evals + Traces</text>
      <text x="18" y="84" font-size="11" fill="#9CA3AF">Test suites + full agent</text>
      <text x="18" y="100" font-size="11" fill="#9CA3AF">request/response/timing logs.</text>
      <text x="18" y="120" font-size="10.5" font-family="&#39;JetBrains Mono&#39;, monospace" fill="#22D3EE">observability</text>
      <rect x="0" y="0" width="224" height="132" rx="14" fill="#22D3EE" fill-opacity="0" pointer-events="none" class="kc-p" style="animation-delay: 7.60s"></rect>
    </g>
  </g>

  
  <g transform="translate(40, 800)">
    <rect width="1200" height="60" rx="14" fill="#0F1320" stroke="#7C3AED" stroke-opacity="0.4"></rect>
    <g transform="translate(20, 18)">
      <rect width="24" height="24" rx="6" fill="#7C3AED" fill-opacity="0.2"></rect>
      <path d="M 12 6 L 18 9 L 18 14 C 18 18, 15 20, 12 21 C 9 20, 6 18, 6 14 L 6 9 Z" fill="none" stroke="#A78BFA" stroke-width="1.4"></path>
    </g>
    <text x="58" y="34" font-size="14" dominant-baseline="middle">
      <tspan font-weight="600" fill="#F3F4F6">Self-Hosted.</tspan>
      <tspan fill="#9CA3AF"> Your data, your infrastructure. No telemetry. No surprises.</tspan>
    </text>
    <text x="1180" y="36" text-anchor="end" font-size="11" font-family="&#39;JetBrains Mono&#39;, monospace" fill="#10D9A0">$ docker compose up</text>
  </g>
</svg>
